# xmcd CD database file
#
# Track frame offsets:
#	150
#	17915
#	35106
#	48893
#	66691
#	82638
#	102331
#	120898
#	137702
#	155732
#
# Disc length: 2249 seconds
#
# Revision: 0
# Processed by: cddbd v1.5.1PL0 Copyright (c) Steve Scherf et al.
# Submitted via: CDex 1.51
#
DISCID=8108c70a
DTITLE=Lisa Christensen - Lisa Christensen (http://www.staroftheveluwe.nl)
DYEAR=2004
DGENRE=Country
TTITLE0=When you say nothing at all
TTITLE1=Wide open spaces
TTITLE2=I can love you better
TTITLE3=Some kind of trouble
TTITLE4=Broken wing
TTITLE5=How do I live
TTITLE6=Im gonna getcha good
TTITLE7=Start the car
TTITLE8=God bless Texas
TTITLE9=Trouble
EXTD=YEAR: 2004
EXTT0=
EXTT1=
EXTT2=
EXTT3=
EXTT4=
EXTT5=
EXTT6=
EXTT7=
EXTT8=
EXTT9=
PLAYORDER=
